<svg id="Layer_1" data-name="Layer 1" xmlns="http://www.w3.org/2000/svg" viewBox="0 0 350 350"><defs><style>.cls-1{fill:#ff8ba1;}.cls-2{fill:#fff;}</style></defs><title>Angry</title><circle class="cls-1" cx="175" cy="175" r="175"/><path class="cls-2" d="M142.28,298.78c-10.84,6.93-22.44-7.79-13.21-16.76a101.71,101.71,0,0,1,141.87,0c9.19,9-2.36,23.7-13.17,16.78A106.87,106.87,0,0,0,142.28,298.78Z" transform="translate(-25 -25)"/><path class="cls-2" d="M158.55,144.18c6.43-3.34,13.28,3.75,9.83,10.12a44.12,44.12,0,0,1-77.66,0c-3.44-6.37,3.4-13.46,9.83-10.12A62.31,62.31,0,0,0,158.55,144.18Z" transform="translate(-25 -25)"/><path class="cls-2" d="M299.35,144.18c6.43-3.34,13.28,3.75,9.83,10.12a44.12,44.12,0,0,1-77.66,0c-3.44-6.37,3.4-13.46,9.83-10.12A62.31,62.31,0,0,0,299.35,144.18Z" transform="translate(-25 -25)"/></svg>