<svg id="Layer_1" data-name="Layer 1" xmlns="http://www.w3.org/2000/svg" viewBox="0 0 227.75 144.93"><defs><style>.cls-1{fill:#5a96d7;}</style></defs><title>ArrowLeft</title><path class="cls-1" d="M9.73,57.56L102.64,3.09a18.68,18.68,0,0,1,28.12,16h0a18.68,18.68,0,0,0,18.66,18.54l60.18,0.05a18.68,18.68,0,0,1,18.66,18.68V88a18.68,18.68,0,0,1-18.69,18.68l-59.33-.05a18.68,18.68,0,0,0-18.69,18.81v1.17A18.68,18.68,0,0,1,103.66,143L10,89.92A18.68,18.68,0,0,1,9.73,57.56Z" transform="translate(-0.5 -0.5)"/></svg>