<svg id="Layer_1" data-name="Layer 1" xmlns="http://www.w3.org/2000/svg" viewBox="0 0 227.75 144.93"><defs><style>.cls-1{fill:#5a96d7;}</style></defs><title>ArrowRight</title><path class="cls-1" d="M219,88.37l-92.91,54.47a18.68,18.68,0,0,1-28.12-16h0a18.68,18.68,0,0,0-18.66-18.54l-60.18-.05A18.68,18.68,0,0,1,.5,89.58V57.94A18.68,18.68,0,0,1,19.19,39.26l59.33,0.05A18.68,18.68,0,0,0,97.22,20.5V19.34A18.68,18.68,0,0,1,125.09,3L218.78,56A18.68,18.68,0,0,1,219,88.37Z" transform="translate(-0.5 -0.5)"/></svg>