<svg id="Layer_1" data-name="Layer 1" xmlns="http://www.w3.org/2000/svg" viewBox="0 0 354.26 338.68"><defs><style>.cls-1{fill:#ff7337;opacity:0.2;}</style></defs><title>EmptyStar</title><path class="cls-1" d="M302.79,368l-97-49.88a8.34,8.34,0,0,0-7.77.07l-96.08,51.63a8.34,8.34,0,0,1-12.19-8.69l17.47-107.67a8.34,8.34,0,0,0-2.47-7.36L26,170.71a8.34,8.34,0,0,1,4.5-14.27l107.8-16.66a8.34,8.34,0,0,0,6.24-4.62l47.39-98.24a8.34,8.34,0,0,1,15-.14L256,134.15a8.34,8.34,0,0,0,6.32,4.51l108.08,14.71a8.34,8.34,0,0,1,4.75,14.19L297.74,244.4a8.34,8.34,0,0,0-2.33,7.41l19.41,107.34A8.34,8.34,0,0,1,302.79,368Z" transform="translate(-23.38 -32.2)"/></svg>