<svg id="Layer_1" data-name="Layer 1" xmlns="http://www.w3.org/2000/svg" viewBox="0 0 192.08 192.08"><defs><style>.cls-1{fill:#ff8074;}.cls-2{fill:#fffbf4;}</style></defs><title>Exit</title><circle class="cls-1" cx="96.04" cy="96.04" r="96.04"/><path class="cls-2" d="M127.53,106.95l33.93,33.93a9.83,9.83,0,0,1,0,13.9l-6.68,6.68a9.83,9.83,0,0,1-13.9,0l-33.93-33.93a9.83,9.83,0,0,0-13.9,0L59.12,161.46a9.83,9.83,0,0,1-13.9,0l-6.68-6.68a9.83,9.83,0,0,1,0-13.9l33.93-33.93a9.83,9.83,0,0,0,0-13.9L38.54,59.12a9.83,9.83,0,0,1,0-13.9l6.68-6.68a9.83,9.83,0,0,1,13.9,0L93.05,72.47a9.83,9.83,0,0,0,13.9,0l33.93-33.93a9.83,9.83,0,0,1,13.9,0l6.68,6.68a9.83,9.83,0,0,1,0,13.9L127.53,93.05A9.83,9.83,0,0,0,127.53,106.95Z" transform="translate(-3.96 -3.96)"/></svg>