<svg id="Layer_1" data-name="Layer 1" xmlns="http://www.w3.org/2000/svg" viewBox="0 0 781.86 781.86"><defs><style>.cls-1{fill:#5f6fff;}.cls-2{fill:#fff;}.cls-3{fill:#ff7c74;}</style></defs><title>FlaggUK</title><circle class="cls-1" cx="390.93" cy="390.22" r="389.5"/><path class="cls-2" d="M145.37,104.24c-7.09,6-14.54,12.73-22.14,20.35-7.35,7.37-13.9,14.6-19.7,21.49L654.7,697.25c7-6,14.39-12.72,21.89-20.23s14-14.66,20-21.61Z" transform="translate(-9.07 -9.78)"/><path class="cls-2" d="M696.47,146c-6-7.09-12.73-14.54-20.35-22.14-7.37-7.35-14.6-13.9-21.49-19.7L103.46,655.37c6,7,12.72,14.39,20.23,21.89s14.66,14,21.61,20Z" transform="translate(-9.07 -9.78)"/><path class="cls-3" d="M125.38,125.44q-4.57,4.2-9.31,8.94-4.38,4.39-8.29,8.66L660.34,695.6q4.22-4,8.54-8.28,4.73-4.71,9.06-9.33Z" transform="translate(-9.07 -9.78)"/><path class="cls-3" d="M676.52,126.16q-4.2-4.57-8.94-9.31-4.39-4.38-8.66-8.29L106.36,661.12q4,4.22,8.28,8.54,4.71,4.73,9.33,9.06Z" transform="translate(-9.07 -9.78)"/><path class="cls-2" d="M524.16,769.82a387.55,387.55,0,0,1-248.32,0V30.18a391.84,391.84,0,0,1,248.32,0V769.82Z" transform="translate(-9.07 -9.78)"/><path class="cls-2" d="M769.7,276a387.55,387.55,0,0,1,0,248.32H30.07a391.84,391.84,0,0,1,0-248.32H769.7Z" transform="translate(-9.07 -9.78)"/><path class="cls-3" d="M452,13.46a368.51,368.51,0,0,0-103.95,0V786.54a267,267,0,0,0,103.95,0V13.46Z" transform="translate(-9.07 -9.78)"/><path class="cls-3" d="M12.75,348.74a368.51,368.51,0,0,0,0,103.95H785.82a267,267,0,0,0,0-103.95H12.75Z" transform="translate(-9.07 -9.78)"/></svg>