<svg id="Layer_1" data-name="Layer 1" xmlns="http://www.w3.org/2000/svg" viewBox="0 0 781.86 781.86"><defs><style>.cls-1{fill:#ff7c74;}.cls-2{fill:#fff;}.cls-3{fill:#5f6fff;}</style></defs><title>FlagNorge</title><circle class="cls-1" cx="390.93" cy="390.22" r="389.5"/><path class="cls-2" d="M524.16,769.82a387.55,387.55,0,0,1-248.32,0V30.18a391.84,391.84,0,0,1,248.32,0V769.82Z" transform="translate(-9.07 -9.78)"/><path class="cls-2" d="M769.7,276a387.55,387.55,0,0,1,0,248.32H30.07a391.84,391.84,0,0,1,0-248.32H769.7Z" transform="translate(-9.07 -9.78)"/><path class="cls-3" d="M452,13.46a368.51,368.51,0,0,0-103.95,0V786.54a267,267,0,0,0,103.95,0V13.46Z" transform="translate(-9.07 -9.78)"/><path class="cls-3" d="M12.75,348.74a368.51,368.51,0,0,0,0,103.95H785.82a267,267,0,0,0,0-103.95H12.75Z" transform="translate(-9.07 -9.78)"/></svg>