<svg id="Layer_1" data-name="Layer 1" xmlns="http://www.w3.org/2000/svg" viewBox="0 0 350 350"><defs><style>.cls-1{fill:#ffe88b;}.cls-2{fill:#fff;}</style></defs><title>Smangry</title><circle class="cls-1" cx="175" cy="175" r="175"/><path class="cls-2" d="M147.15,123.18c20.16,4.18,27,29.64,11.58,43.27a44.11,44.11,0,0,1-58.35,0c-15.38-13.57-8.67-39,11.41-43.23A86.67,86.67,0,0,1,147.15,123.18Z" transform="translate(-25 -25)"/><path class="cls-2" d="M288,123.18c20.16,4.18,27,29.64,11.58,43.27a44.11,44.11,0,0,1-58.35,0c-15.38-13.57-8.67-39,11.41-43.23A86.67,86.67,0,0,1,288,123.18Z" transform="translate(-25 -25)"/><rect class="cls-2" x="84" y="239.22" width="182" height="36.58" rx="18.29" ry="18.29"/></svg>