<svg id="Layer_1" data-name="Layer 1" xmlns="http://www.w3.org/2000/svg" viewBox="0 0 350 350"><defs><style>.cls-1{fill:#9affcb;}.cls-2{fill:#fff;}</style></defs><title>Smiley</title><circle class="cls-1" cx="175" cy="175" r="175"/><path class="cls-2" d="M284.45,241.45a11.71,11.71,0,0,1,15.32,13.27,101.73,101.73,0,0,1-199.54,0,11.71,11.71,0,0,1,15.33-13.27,261.57,261.57,0,0,0,83.86,14A261.58,261.58,0,0,0,284.45,241.45Z" transform="translate(-25 -25)"/><path class="cls-2" d="M100.14,146.82c-6.43,3.34-13.28-3.75-9.83-10.12a44.12,44.12,0,0,1,77.66,0c3.44,6.37-3.4,13.46-9.83,10.12A62.31,62.31,0,0,0,100.14,146.82Z" transform="translate(-25 -25)"/><path class="cls-2" d="M231.25,146.82c-6.43,3.34-13.28-3.75-9.83-10.12a44.12,44.12,0,0,1,77.66,0c3.44,6.37-3.4,13.46-9.83,10.12A62.31,62.31,0,0,0,231.25,146.82Z" transform="translate(-25 -25)"/></svg>