<svg id="Hand" xmlns="http://www.w3.org/2000/svg" viewBox="0 0 330 396.16"><defs><style>.cls-1,.cls-2{fill:#ffed9f;}.cls-2{stroke:#c5b350;stroke-miterlimit:10;opacity:0.5;}.cls-3{fill:#c5b350;opacity:0.1;}</style></defs><title>ThumbUp</title><circle class="cls-1" cx="167.25" cy="261.56" r="134.6"/><path class="cls-1" d="M208.88,72.9l0,0c0.18,13.64-.18,28-1.27,43a508.37,508.37,0,0,1-27.9,132.64L114,236.26,146.38,64a21.66,21.66,0,0,1,.84-3.17c0-.39,0-0.8,0-1.21a88.79,88.79,0,0,0,5.32-17.16,88.24,88.24,0,0,0,1.13-27.53,9.7,9.7,0,0,1,.49-5.65c2.06-4.93,8.8-7.88,16.75-6.94,8.85,1.06,15.44,1.77,16.92,2.35a35.17,35.17,0,0,1,11.31,7.11c5.48,5.3,7.54,11.21,8.84,15C214.05,44.87,209.89,67.76,208.88,72.9Z" transform="translate(-27.83 -2.17)"/><path class="cls-1" d="M167.25,328.86H314.58A15.42,15.42,0,0,1,330,344.28v36.46a15.42,15.42,0,0,1-15.42,15.42H167.25a0,0,0,0,1,0,0v-67.3a0,0,0,0,1,0,0Z"/><path class="cls-1" d="M167.25,261.56H314.58A15.42,15.42,0,0,1,330,277v36.46a15.42,15.42,0,0,1-15.42,15.42H167.25a0,0,0,0,1,0,0v-67.3a0,0,0,0,1,0,0Z"/><path class="cls-1" d="M167.25,194.26H314.58A15.42,15.42,0,0,1,330,209.68v36.46a15.42,15.42,0,0,1-15.42,15.42H167.25a0,0,0,0,1,0,0v-67.3A0,0,0,0,1,167.25,194.26Z"/><path class="cls-1" d="M167.25,127H314.58A15.42,15.42,0,0,1,330,142.38v36.46a15.42,15.42,0,0,1-15.42,15.42H167.25a0,0,0,0,1,0,0V127A0,0,0,0,1,167.25,127Z"/><rect class="cls-1" y="180.85" width="65.29" height="161.42" rx="9.51" ry="9.51"/><line class="cls-2" x1="316.17" y1="194.33" x2="287.17" y2="194.33"/><line class="cls-2" x1="316.17" y1="261.33" x2="287.17" y2="261.33"/><line class="cls-2" x1="316.17" y1="329.33" x2="287.17" y2="329.33"/><path class="cls-3" d="M184,152.53l22.35-23.29c0.23-.24.52-0.06,0.41,0.26L195.29,160c-0.38,1-1.45,1.57-2.13,1.11l-9.3-6.22A1.61,1.61,0,0,1,184,152.53Z" transform="translate(-27.83 -2.17)"/><path class="cls-3" d="M153.54,13.47c9.61,0.45,17,8.45,16.92,17.49-0.13,9.67-8.87,17.79-19.16,17A87.2,87.2,0,0,0,153.54,13.47Z" transform="translate(-27.83 -2.17)"/></svg>