<svg id="Hand" xmlns="http://www.w3.org/2000/svg" viewBox="0 0 330 396.16"><defs><style>.cls-1{fill:#f8a705;}.cls-2,.cls-3{fill:#986500;}.cls-2{stroke:#986500;stroke-miterlimit:10;opacity:0.5;}.cls-3{opacity:0.1;}</style></defs><title>ThumbDown</title><circle class="cls-1" cx="162.75" cy="134.6" r="134.6"/><path class="cls-1" d="M176.77,327.61l0,0c-0.18-13.64.18-28,1.27-43A508.37,508.37,0,0,1,206,151.9l65.69,12.35L239.27,336.5a21.66,21.66,0,0,1-.84,3.17c0,0.39,0,.8,0,1.21A87.86,87.86,0,0,0,232,385.57a9.7,9.7,0,0,1-.49,5.65c-2.06,4.93-8.8,7.88-16.75,6.94-8.85-1.06-15.44-1.77-16.92-2.35a35.17,35.17,0,0,1-11.31-7.11c-5.48-5.3-7.54-11.21-8.84-15C171.6,355.64,175.76,332.75,176.77,327.61Z" transform="translate(-27.83 -2.17)"/><path class="cls-1" d="M27.83,2.17H175.16a15.42,15.42,0,0,1,15.42,15.42V54.05a15.42,15.42,0,0,1-15.42,15.42H27.83a0,0,0,0,1,0,0V2.17A0,0,0,0,1,27.83,2.17Z" transform="translate(190.58 69.47) rotate(-180)"/><path class="cls-1" d="M27.83,69.47H175.16a15.42,15.42,0,0,1,15.42,15.42v36.46a15.42,15.42,0,0,1-15.42,15.42H27.83a0,0,0,0,1,0,0V69.47A0,0,0,0,1,27.83,69.47Z" transform="translate(190.58 204.07) rotate(-180)"/><path class="cls-1" d="M27.83,136.77H175.16a15.42,15.42,0,0,1,15.42,15.42v36.46a15.42,15.42,0,0,1-15.42,15.42H27.83a0,0,0,0,1,0,0v-67.3A0,0,0,0,1,27.83,136.77Z" transform="translate(190.58 338.68) rotate(-180)"/><path class="cls-1" d="M27.83,204.07H175.16a15.42,15.42,0,0,1,15.42,15.42V256a15.42,15.42,0,0,1-15.42,15.42H27.83a0,0,0,0,1,0,0v-67.3A0,0,0,0,1,27.83,204.07Z" transform="translate(190.58 473.28) rotate(-180)"/><rect class="cls-1" x="292.53" y="56.06" width="65.29" height="161.42" rx="9.51" ry="9.51" transform="translate(622.53 271.38) rotate(-180)"/><line class="cls-2" x1="14.17" y1="202.33" x2="43.17" y2="202.33"/><line class="cls-2" x1="14.17" y1="135.33" x2="43.17" y2="135.33"/><line class="cls-2" x1="14.17" y1="67.33" x2="43.17" y2="67.33"/><path class="cls-3" d="M201.68,248l-22.35,23.29c-0.23.24-.52,0.06-0.41-0.26l11.44-30.51c0.38-1,1.45-1.57,2.13-1.11l9.3,6.22A1.61,1.61,0,0,1,201.68,248Z" transform="translate(-27.83 -2.17)"/><path class="cls-3" d="M232.11,387c-9.61-.45-17-8.45-16.92-17.49,0.13-9.67,8.87-17.79,19.16-17A87.2,87.2,0,0,0,232.11,387Z" transform="translate(-27.83 -2.17)"/></svg>